<?xml version="1.0" encoding="UTF-8"?>
<svg width="23px" height="23px" viewBox="0 0 23 23" version="1.1" xmlns="http://www.w3.org/2000/svg" xmlns:xlink="http://www.w3.org/1999/xlink">
    <!-- Generator: sketchtool 55.1 (78136) - https://sketchapp.com -->
    <title>0F2EC409-E0CA-49F3-9B35-95843B9C9EB6</title>
    <desc>Created with sketchtool.</desc>
    <g id="Wireframes-MOBILE-CZ" stroke="none" stroke-width="1" fill="none" fill-rule="evenodd">
        <g id="RESTAURANTS-mobile" transform="translate(-175.000000, -93.000000)" fill="#000000" fill-rule="nonzero">
            <g id="Group-2" transform="translate(8.000000, 79.999924)">
                <path d="M178.5,20.3182578 C176.2,20.3182578 174.318182,22.200076 174.318182,24.500076 C174.318182,26.800076 176.2,28.6818942 178.5,28.6818942 C180.8,28.6818942 182.681818,26.800076 182.681818,24.500076 C182.681818,22.200076 180.8,20.3182578 178.5,20.3182578 Z M187.804545,23.4546215 C187.281818,19.0637124 183.831818,15.6137124 179.545455,15.1955305 L179.545455,13.000076 L177.454545,13.000076 L177.454545,15.1955305 C173.063636,15.6137124 169.613636,19.0637124 169.195455,23.4546215 L167,23.4546215 L167,25.5455305 L169.195455,25.5455305 C169.718182,29.9364396 173.168182,33.3864396 177.454545,33.8046215 L177.454545,36.000076 L179.545455,36.000076 L179.545455,33.8046215 C183.936364,33.2818942 187.386364,29.8318942 187.804545,25.5455305 L190,25.5455305 L190,23.4546215 L187.804545,23.4546215 Z M178.5,31.8182578 C174.422727,31.8182578 171.181818,28.5773487 171.181818,24.500076 C171.181818,20.4228033 174.422727,17.1818942 178.5,17.1818942 C182.577273,17.1818942 185.818182,20.4228033 185.818182,24.500076 C185.818182,28.5773487 182.577273,31.8182578 178.5,31.8182578 Z" id="Shape"></path>
            </g>
        </g>
    </g>
</svg>