<?xml version="1.0" encoding="UTF-8"?>
<svg width="19px" height="20px" viewBox="0 0 19 20" version="1.1" xmlns="http://www.w3.org/2000/svg" xmlns:xlink="http://www.w3.org/1999/xlink">
    <!-- Generator: sketchtool 55.1 (78136) - https://sketchapp.com -->
    <title>EAEA78E4-050A-469E-895D-B4AF799DCA64</title>
    <desc>Created with sketchtool.</desc>
    <g id="Wireframes-DESKTOP-CZ" stroke="none" stroke-width="1" fill="none" fill-rule="evenodd">
        <g id="RESTAURANTS-wireframes" transform="translate(-339.000000, -104.000000)" fill="#FFFFFF" fill-rule="nonzero" stroke="#FFFFFF">
            <g id="Search-bar" transform="translate(0.000000, 67.000000)">
                <g id="Input-adress" transform="translate(17.000000, 25.000000)">
                    <g id="search-btn" transform="translate(312.000000, 3.000000)">
                        <path d="M27.8063823,26.8726863 L23.7792526,22.8108083 C26.5970853,19.9559741 26.6803206,15.3762903 23.9681076,12.4198216 C21.2558947,9.46335278 16.7097375,9.17819384 13.6531903,11.7728156 C10.5966431,14.3674373 10.1132795,18.9220229 12.5564715,22.1068564 C14.9996636,25.2916898 19.5032777,25.977719 22.7748615,23.6634092 L26.8819947,27.8083611 C27.048208,27.9744099 27.2898891,28.038676 27.515999,27.9769509 C27.742109,27.9152259 27.9182962,27.7368873 27.9781928,27.5091135 C28.0380894,27.2813397 27.9725956,27.038735 27.8063823,26.8726863 Z M12.4166667,17.5403778 C12.4273297,14.1629707 15.1276526,11.4328008 18.4503486,11.44 C21.7730446,11.4472278 24.4618696,14.1890975 24.4583333,17.56652 C24.4547901,20.9439425 21.7602238,23.68 18.4375202,23.68 C16.8380449,23.6776891 15.3050148,23.0294693 14.1758255,21.8780035 C13.0466362,20.7265378 12.4138296,19.1661936 12.4166667,17.5403778 L12.4166667,17.5403778 Z" id="Search"></path>
                    </g>
                </g>
            </g>
        </g>
    </g>
</svg>